<?xml version="1.0" encoding="UTF-8" ?>
<!DOCTYPE svg PUBLIC "-//W3C//DTD SVG 1.1//EN" "http://www.w3.org/Graphics/SVG/1.1/DTD/svg11.dtd">
<svg width="802pt" height="547pt" viewBox="0 0 802 547" version="1.1" xmlns="http://www.w3.org/2000/svg">
<g id="#ffffffff">
<path fill="#ffffff" opacity="1.00" d=" M 390.37 8.53 C 401.60 8.57 412.89 8.02 424.05 9.58 C 455.85 13.53 486.05 28.69 508.36 51.67 C 519.51 62.31 529.21 74.50 536.56 88.07 C 549.13 110.84 554.90 137.06 554.00 163.00 C 555.02 198.97 541.89 235.08 517.85 261.87 C 508.73 271.77 499.10 281.32 488.01 289.02 C 467.44 303.49 442.98 312.39 417.91 314.43 C 410.29 315.15 402.63 314.79 394.99 314.88 C 361.55 314.98 328.34 302.56 302.95 280.85 C 287.76 267.55 273.90 252.35 264.45 234.38 C 252.34 212.04 246.72 186.43 247.50 161.07 C 246.73 132.84 254.24 104.39 269.39 80.51 C 277.88 66.76 289.13 54.97 301.06 44.17 C 325.54 22.45 357.66 9.60 390.37 8.53 M 386.03 19.17 C 357.32 22.04 329.63 33.96 307.76 52.77 C 283.42 73.46 266.33 102.56 260.28 133.95 C 255.44 158.54 257.14 184.40 265.28 208.11 C 275.29 237.59 295.29 263.51 321.18 280.79 C 344.33 296.37 372.15 304.93 400.06 304.91 C 427.10 305.22 454.16 297.48 477.02 283.05 C 505.20 265.42 526.92 237.69 537.09 206.02 C 549.03 169.61 545.56 128.43 527.47 94.61 C 513.45 68.07 490.87 46.16 463.88 32.99 C 439.92 21.14 412.59 16.45 386.03 19.17 Z" />
<path fill="#ffffff" opacity="1.00" d=" M 339.95 43.93 C 366.24 30.31 397.11 26.68 426.12 31.81 C 436.75 33.51 446.62 38.09 456.20 42.81 C 480.19 54.98 502.11 72.52 516.30 95.64 C 528.16 114.76 533.62 137.57 532.55 160.00 C 531.54 182.51 525.11 204.50 515.89 224.95 C 508.54 237.43 499.40 248.88 488.98 258.94 C 472.65 274.59 452.21 286.12 430.04 290.93 C 413.57 294.60 396.36 294.69 379.82 291.36 C 385.92 290.02 392.15 288.84 397.68 285.79 C 407.52 280.81 414.92 271.55 417.94 260.97 C 424.67 236.39 425.63 210.29 435.55 186.60 C 439.52 176.97 445.93 168.56 453.25 161.23 C 459.02 155.46 465.75 150.54 473.29 147.36 C 481.93 144.20 490.76 140.88 498.06 135.14 C 500.86 133.53 499.36 130.19 498.29 127.98 C 493.86 119.40 487.45 112.03 480.77 105.13 C 464.50 88.95 444.19 76.13 421.54 71.39 C 408.23 68.57 394.34 68.96 381.13 72.15 C 351.61 78.49 324.34 96.61 308.62 122.60 C 290.55 155.16 288.45 196.54 304.82 230.21 C 315.63 253.43 334.78 271.80 355.85 285.84 C 328.41 271.27 303.73 250.45 287.11 224.00 C 273.73 202.68 267.00 177.13 269.00 151.98 C 270.36 134.21 275.20 116.78 282.58 100.59 C 296.09 77.02 315.60 56.40 339.95 43.93 M 504.48 185.23 C 504.19 189.19 503.91 193.19 502.89 197.06 C 495.68 231.66 473.74 263.29 442.98 280.96 C 456.15 276.09 467.70 267.43 477.19 257.19 C 494.40 238.38 503.52 213.09 504.88 187.84 C 506.03 186.98 506.18 182.66 504.48 185.23 Z" />
</g>
<g id="#19638eff">
<path fill="#19638e" opacity="1.00" d=" M 386.03 19.17 C 412.59 16.45 439.92 21.14 463.88 32.99 C 490.87 46.16 513.45 68.07 527.47 94.61 C 545.56 128.43 549.03 169.61 537.09 206.02 C 526.92 237.69 505.20 265.42 477.02 283.05 C 454.16 297.48 427.10 305.22 400.06 304.91 C 372.15 304.93 344.33 296.37 321.18 280.79 C 295.29 263.51 275.29 237.59 265.28 208.11 C 257.14 184.40 255.44 158.54 260.28 133.95 C 266.33 102.56 283.42 73.46 307.76 52.77 C 329.63 33.96 357.32 22.04 386.03 19.17 M 339.95 43.93 C 315.60 56.40 296.09 77.02 282.58 100.59 C 275.20 116.78 270.36 134.21 269.00 151.98 C 267.00 177.13 273.73 202.68 287.11 224.00 C 303.73 250.45 328.41 271.27 355.85 285.84 C 334.78 271.80 315.63 253.43 304.82 230.21 C 288.45 196.54 290.55 155.16 308.62 122.60 C 324.34 96.61 351.61 78.49 381.13 72.15 C 394.34 68.96 408.23 68.57 421.54 71.39 C 444.19 76.13 464.50 88.95 480.77 105.13 C 487.45 112.03 493.86 119.40 498.29 127.98 C 499.36 130.19 500.86 133.53 498.06 135.14 C 490.76 140.88 481.93 144.20 473.29 147.36 C 465.75 150.54 459.02 155.46 453.25 161.23 C 445.93 168.56 439.52 176.97 435.55 186.60 C 425.63 210.29 424.67 236.39 417.94 260.97 C 414.92 271.55 407.52 280.81 397.68 285.79 C 392.15 288.84 385.92 290.02 379.82 291.36 C 396.36 294.69 413.57 294.60 430.04 290.93 C 452.21 286.12 472.65 274.59 488.98 258.94 C 499.40 248.88 508.54 237.43 515.89 224.95 C 525.11 204.50 531.54 182.51 532.55 160.00 C 533.62 137.57 528.16 114.76 516.30 95.64 C 502.11 72.52 480.19 54.98 456.20 42.81 C 446.62 38.09 436.75 33.51 426.12 31.81 C 397.11 26.68 366.24 30.31 339.95 43.93 Z" />
<path fill="#19638e" opacity="1.00" d=" M 504.48 185.23 C 506.18 182.66 506.03 186.98 504.88 187.84 C 503.52 213.09 494.40 238.38 477.19 257.19 C 467.70 267.43 456.15 276.09 442.98 280.96 C 473.74 263.29 495.68 231.66 502.89 197.06 C 503.91 193.19 504.19 189.19 504.48 185.23 Z" />
</g>
<g id="#565757ff">
<path fill="#565757" opacity="1.00" d=" M 298.47 336.80 C 310.31 335.66 322.35 335.90 334.06 338.07 C 343.35 339.90 353.01 343.44 359.13 351.05 C 363.80 356.55 364.40 364.09 364.96 370.98 C 365.07 392.65 364.95 414.33 365.01 436.00 C 365.09 443.49 363.69 451.22 359.60 457.61 C 354.87 464.94 346.76 470.11 338.02 470.86 C 322.19 473.45 305.93 474.40 290.03 471.86 C 282.67 470.55 275.15 468.44 269.16 463.77 C 263.99 459.71 260.59 453.58 259.50 447.13 C 257.99 438.85 257.96 430.40 258.00 422.02 C 258.00 412.02 258.00 402.03 258.00 392.04 C 258.05 382.39 257.55 372.60 259.70 363.11 C 261.27 355.63 264.82 347.70 272.04 344.17 C 280.24 339.94 289.34 337.75 298.47 336.80 M 300.45 357.73 C 294.98 358.53 289.03 359.95 285.25 364.30 C 282.91 366.93 282.41 370.59 282.48 373.99 C 282.56 395.97 282.43 417.95 282.55 439.92 C 282.40 444.54 285.85 448.40 290.01 449.95 C 297.92 453.06 306.62 452.23 314.94 452.38 C 321.90 452.36 329.61 452.65 335.53 448.36 C 340.68 444.66 340.59 437.69 341.52 432.03 C 341.77 419.03 341.55 406.02 341.62 393.02 C 341.52 384.12 342.24 374.95 339.47 366.35 C 338.51 363.67 336.99 360.54 333.94 359.85 C 323.04 357.07 311.62 356.47 300.45 357.73 Z" />
<path fill="#565757" opacity="1.00" d=" M 397.29 341.40 C 400.91 339.66 403.64 335.45 408.11 336.08 C 410.65 335.87 412.61 338.59 412.50 340.96 C 412.52 384.20 412.47 427.44 412.52 470.67 C 409.45 474.57 404.31 473.18 400.02 473.38 C 396.69 473.31 393.34 473.58 390.03 473.22 C 387.40 472.56 387.26 469.25 387.24 467.06 C 387.13 447.70 386.80 428.35 386.02 409.02 C 386.04 395.50 386.35 381.96 387.78 368.50 C 388.57 361.89 389.46 355.21 391.73 348.91 C 392.86 346.00 394.23 342.75 397.29 341.40 Z" />
<path fill="#565757" opacity="1.00" d=" M 436.29 336.25 C 446.50 335.69 456.25 340.54 463.94 346.93 C 475.54 356.67 484.03 369.49 491.39 382.59 C 496.00 391.67 502.09 399.87 507.50 408.47 C 512.15 415.33 516.32 422.53 521.30 429.17 C 521.52 412.76 521.24 396.33 521.44 379.91 C 521.86 369.33 522.60 358.50 526.51 348.55 C 528.59 343.30 532.28 337.97 538.08 336.57 C 540.25 336.22 543.04 335.38 544.82 337.17 C 546.58 338.99 546.63 341.69 546.64 344.06 C 546.58 385.06 546.66 426.07 546.60 467.07 C 546.67 469.79 545.42 473.66 542.05 473.35 C 535.07 473.40 528.08 473.45 521.10 473.27 C 511.11 459.26 502.19 444.53 492.98 430.00 C 481.97 412.39 471.03 394.73 460.18 377.02 C 459.45 375.99 458.65 375.03 457.78 374.14 C 457.42 406.32 457.71 438.52 457.63 470.71 C 456.21 471.75 454.92 473.45 452.98 473.35 C 447.67 473.36 442.35 473.53 437.05 473.26 C 434.03 472.42 433.55 468.76 433.51 466.10 C 433.47 425.72 433.51 385.33 433.49 344.95 C 433.68 341.95 433.70 338.26 436.29 336.25 Z" />
<path fill="#565757" opacity="1.00" d=" M 586.56 341.36 C 604.38 335.86 623.49 334.73 641.87 337.78 C 652.03 339.53 662.62 343.55 668.81 352.27 C 668.57 354.11 669.27 356.33 667.94 357.86 C 665.03 358.72 661.97 358.29 659.00 358.30 C 643.96 358.14 628.93 357.63 613.90 357.16 C 608.30 357.22 602.40 357.65 597.45 360.51 C 594.43 362.23 592.31 365.49 592.30 369.00 C 592.19 373.35 592.17 377.70 592.31 382.06 C 592.46 385.90 596.18 388.21 599.38 389.51 C 606.90 392.39 615.06 393.03 623.04 393.22 C 638.21 393.93 653.38 398.41 666.05 406.87 C 671.55 413.11 673.85 421.79 673.52 430.01 C 673.64 438.65 673.80 447.78 669.52 455.59 C 665.73 462.68 658.85 468.08 651.09 470.12 C 636.92 472.97 622.35 474.03 607.94 472.91 C 595.92 471.84 582.71 469.08 574.43 459.55 C 572.59 457.63 572.56 452.20 576.06 452.40 C 593.37 452.31 610.69 452.44 628.01 452.34 C 634.64 452.13 642.19 451.23 646.89 446.00 C 650.75 441.63 650.21 435.45 650.10 430.05 C 650.13 424.80 645.32 421.35 640.97 419.47 C 631.81 415.69 621.79 414.66 611.99 414.06 C 600.57 413.89 588.34 412.21 579.13 404.88 C 571.87 399.16 568.31 389.92 567.80 380.89 C 567.32 372.51 567.99 363.85 571.24 356.03 C 574.05 349.34 579.53 343.56 586.56 341.36 Z" />
<path fill="#565757" opacity="1.00" d=" M 713.84 341.77 C 724.98 337.33 737.11 336.11 749.02 336.13 C 759.84 336.29 770.86 337.16 781.07 341.01 C 788.49 343.81 795.60 348.82 798.84 356.29 C 800.45 360.79 801.01 365.59 802.00 370.25 L 802.00 439.66 C 800.75 446.22 799.47 453.07 795.47 458.61 C 790.96 464.90 783.93 469.61 776.18 470.61 C 761.26 473.12 745.99 474.28 730.92 472.48 C 720.46 471.11 709.00 468.48 701.89 460.06 C 695.74 452.88 695.15 443.01 694.68 434.02 C 694.29 421.35 694.59 408.68 694.50 396.01 C 694.63 384.97 693.85 373.78 696.27 362.92 C 697.47 357.61 699.45 352.27 703.19 348.22 C 706.04 345.09 710.00 343.34 713.84 341.77 M 736.60 357.79 C 729.19 358.60 719.62 362.23 719.19 370.94 C 719.05 393.97 719.15 417.00 719.14 440.03 C 718.91 445.45 723.70 449.41 728.55 450.67 C 737.79 453.27 747.53 452.15 757.01 452.35 C 763.90 452.24 772.49 450.79 775.72 443.82 C 778.49 435.87 778.28 427.33 778.25 419.03 C 778.05 404.67 778.69 390.28 777.84 375.94 C 777.13 370.47 776.67 363.71 771.73 360.28 C 760.39 356.97 748.30 356.45 736.60 357.79 Z" />
<path fill="#565757" opacity="1.00" d=" M 0.00 343.11 C 0.63 340.20 2.69 337.36 5.89 337.19 C 13.25 336.71 20.64 337.14 28.01 337.00 C 46.05 337.24 64.41 335.83 82.09 340.23 C 88.50 341.89 95.07 344.35 99.76 349.23 C 102.75 352.56 104.46 356.81 105.98 360.97 C 108.78 369.01 107.86 377.61 108.00 385.96 C 107.82 394.61 108.78 403.51 106.16 411.90 C 103.96 419.44 98.75 425.95 91.99 429.92 C 82.37 435.60 70.99 437.24 60.00 437.62 C 48.29 437.90 36.59 437.67 24.88 437.75 C 24.82 448.19 24.96 458.62 24.84 469.06 C 25.07 471.59 22.36 473.37 20.06 473.33 C 14.70 473.44 9.32 473.50 3.97 473.28 C 1.53 473.29 0.73 470.63 0.00 468.79 L 0.00 343.11 M 24.98 358.34 C 24.74 377.64 24.94 396.94 24.88 416.25 C 37.26 416.25 49.64 416.26 62.03 416.25 C 69.01 416.15 76.93 414.24 80.99 408.03 C 84.93 402.12 83.87 394.71 84.00 388.00 C 83.89 380.75 84.90 372.80 80.80 366.36 C 77.53 360.94 71.01 358.59 64.94 358.41 C 51.62 358.29 38.30 358.46 24.98 358.34 Z" />
<path fill="#565757" opacity="1.00" d=" M 131.00 339.04 C 132.79 337.13 135.56 336.97 138.01 336.98 C 154.02 337.04 170.03 336.94 186.04 337.03 C 198.17 337.51 210.74 338.69 221.75 344.25 C 226.53 346.83 231.32 350.43 233.17 355.75 C 235.55 362.21 237.27 369.03 237.02 375.97 C 236.78 386.23 238.17 397.10 233.57 406.68 C 231.93 410.38 229.30 413.53 226.40 416.32 C 234.30 423.99 237.37 435.26 237.01 446.02 C 236.71 454.89 237.57 463.90 236.58 472.69 C 230.96 474.26 224.78 472.94 218.93 473.41 C 216.97 473.18 213.13 474.17 213.08 471.19 C 212.84 462.79 213.10 454.38 212.99 445.99 C 212.89 441.22 211.87 436.10 208.48 432.53 C 205.56 429.46 201.20 428.28 197.08 428.26 C 182.71 428.20 168.34 428.31 153.97 428.22 C 153.73 441.83 153.98 455.45 153.85 469.07 C 154.13 472.03 150.61 473.68 148.06 473.39 C 142.72 473.27 137.35 473.64 132.02 473.18 C 129.37 471.89 128.96 468.63 128.99 466.02 C 129.00 426.00 129.02 385.98 128.98 345.97 C 128.98 343.55 129.16 340.84 131.00 339.04 M 154.00 358.33 C 153.72 374.51 153.95 390.69 153.88 406.87 C 166.59 406.86 179.30 406.90 192.00 406.86 C 197.56 406.78 203.58 405.77 207.77 401.81 C 211.74 398.03 213.07 392.33 213.01 387.02 C 212.96 380.03 213.75 372.40 209.75 366.23 C 206.45 360.87 199.94 358.59 193.91 358.41 C 180.61 358.29 167.30 358.47 154.00 358.33 Z" />
<path fill="#565757" opacity="1.00" d=" M 118.34 521.25 C 119.63 517.78 123.82 517.35 126.98 517.00 C 131.70 516.63 137.57 516.89 140.20 521.53 C 135.47 522.01 130.71 521.38 125.99 521.72 C 122.16 521.39 121.61 528.23 125.19 528.62 C 129.93 529.66 135.55 529.07 139.33 532.68 C 141.01 535.37 140.77 538.87 140.08 541.86 C 139.10 545.18 135.42 546.14 132.50 547.00 L 125.43 547.00 C 122.65 546.08 119.66 544.99 118.34 542.15 C 123.16 541.76 128.03 542.39 132.83 541.70 C 135.44 541.29 135.84 538.24 135.14 536.14 C 130.87 532.59 124.48 535.17 120.10 531.88 C 117.02 529.36 117.13 524.69 118.34 521.25 Z" />
<path fill="#565757" opacity="1.00" d=" M 157.17 522.92 C 157.45 518.95 161.64 517.44 165.03 517.11 C 169.32 516.72 174.17 516.61 177.85 519.21 C 180.54 521.28 179.86 525.05 180.03 528.02 C 179.85 532.57 180.44 537.20 179.57 541.70 C 178.64 545.27 174.68 546.18 171.59 547.00 L 164.66 547.00 C 161.70 545.91 157.65 544.77 157.20 541.08 C 156.63 535.06 156.66 528.94 157.17 522.92 M 164.15 522.16 C 163.02 522.55 162.15 523.66 162.28 524.90 C 162.20 529.61 162.19 534.33 162.29 539.05 C 161.98 541.07 164.26 541.87 165.89 541.94 C 168.34 542.01 171.01 542.38 173.31 541.34 C 175.52 539.63 174.64 536.39 174.90 533.98 C 174.58 530.15 175.71 525.87 173.79 522.37 C 170.71 521.36 167.25 521.15 164.15 522.16 Z" />
<path fill="#565757" opacity="1.00" d=" M 197.14 521.24 C 198.41 517.71 202.76 517.46 205.92 517.07 C 210.40 516.87 216.59 516.82 218.59 521.75 C 214.07 522.00 209.54 521.49 205.01 521.74 C 203.73 521.80 201.68 522.31 201.78 523.96 C 201.45 528.98 201.52 534.04 201.73 539.07 C 201.57 540.77 203.46 541.62 204.87 541.73 C 209.38 542.25 213.94 541.94 218.45 542.43 C 216.82 545.33 213.52 546.17 210.55 547.00 L 205.26 547.00 C 202.57 546.21 199.54 545.61 197.57 543.47 C 196.03 540.60 196.39 537.18 196.22 534.04 C 196.34 529.78 195.80 525.36 197.14 521.24 Z" />
<path fill="#565757" opacity="1.00" d=" M 235.49 520.07 C 235.88 517.82 238.39 517.36 240.11 516.51 C 240.37 526.67 240.27 536.84 240.17 547.00 L 234.77 547.00 C 234.78 538.04 233.48 528.90 235.49 520.07 Z" />
<path fill="#565757" opacity="1.00" d=" M 256.62 516.91 C 263.32 516.90 270.03 516.72 276.72 517.06 C 276.09 518.55 275.91 520.77 273.93 521.10 C 270.05 522.14 265.97 521.79 262.00 521.91 C 262.00 524.17 262.00 526.45 262.01 528.73 C 266.81 529.11 274.59 527.23 276.06 533.57 C 271.37 533.84 266.68 533.74 261.99 533.75 C 262.00 536.36 262.01 538.99 262.03 541.61 C 266.23 541.74 270.60 541.32 274.62 542.71 C 276.35 543.37 276.14 545.53 276.66 547.00 L 256.88 547.00 C 256.09 537.00 256.57 526.93 256.62 516.91 Z" />
<path fill="#565757" opacity="1.00" d=" M 292.89 517.11 C 298.54 517.06 304.25 516.57 309.85 517.55 C 312.63 518.02 315.61 519.80 315.81 522.91 C 316.39 528.58 316.25 534.33 315.94 540.03 C 315.83 543.76 312.28 545.72 309.25 547.00 L 292.88 547.00 C 292.67 537.04 292.65 527.07 292.89 517.11 M 298.09 521.80 C 298.16 528.57 298.11 535.34 298.13 542.11 C 301.65 541.99 305.32 542.58 308.75 541.57 C 312.01 539.61 310.53 535.14 310.90 532.01 C 310.50 528.80 312.06 524.22 308.75 522.19 C 305.29 521.26 301.63 521.89 298.09 521.80 Z" />
<path fill="#565757" opacity="1.00" d=" M 335.36 518.56 C 339.89 516.51 345.16 516.43 349.95 517.49 C 352.96 518.16 355.68 520.69 355.57 523.95 C 355.74 531.63 355.59 539.32 355.58 547.00 L 350.57 547.00 C 350.48 542.83 350.48 538.67 350.50 534.51 C 346.32 534.51 342.14 534.50 337.97 534.47 C 337.89 538.64 337.88 542.82 337.69 547.00 L 332.73 547.00 C 332.01 540.33 332.50 533.61 332.37 526.92 C 332.50 524.01 332.53 520.24 335.36 518.56 M 338.18 523.13 C 337.67 525.20 337.90 527.37 337.84 529.49 C 342.08 529.50 346.33 529.50 350.58 529.49 C 350.24 527.08 351.19 523.79 348.81 522.19 C 345.42 521.37 341.08 520.77 338.18 523.13 Z" />
<path fill="#565757" opacity="1.00" d=" M 372.08 517.16 C 377.67 517.01 383.33 516.60 388.88 517.50 C 391.75 517.96 394.86 519.80 395.05 523.03 C 395.63 528.66 395.52 534.38 395.17 540.03 C 395.02 543.76 391.50 545.75 388.45 547.00 L 372.17 547.00 C 371.65 537.07 371.78 527.10 372.08 517.16 M 377.39 521.76 C 377.37 528.54 377.37 535.33 377.39 542.12 C 380.58 542.08 383.81 542.35 386.98 541.87 C 388.79 541.61 390.05 539.85 389.95 538.07 C 390.07 534.02 390.06 529.96 389.96 525.91 C 390.08 524.10 388.95 522.12 387.02 521.92 C 383.82 521.55 380.59 521.79 377.39 521.76 Z" />
<path fill="#565757" opacity="1.00" d=" M 440.39 518.45 C 444.86 516.53 449.99 516.44 454.69 517.47 C 457.75 518.12 460.51 520.70 460.33 524.02 C 460.49 531.68 460.34 539.34 460.34 547.00 L 455.34 547.00 C 455.22 542.86 455.23 538.71 455.29 534.57 C 451.06 534.47 446.83 534.47 442.61 534.54 C 442.65 538.69 442.65 542.85 442.49 547.00 L 437.51 547.00 C 436.73 540.35 437.23 533.64 437.14 526.97 C 437.31 523.99 437.31 519.98 440.39 518.45 M 444.21 522.23 C 441.55 523.55 442.99 527.15 442.59 529.49 C 446.83 529.50 451.08 529.50 455.33 529.49 C 454.98 527.16 455.95 523.96 453.80 522.31 C 450.75 521.22 447.27 521.22 444.21 522.23 Z" />
<path fill="#565757" opacity="1.00" d=" M 476.88 516.58 C 480.24 517.16 483.50 518.64 485.57 521.45 C 489.32 526.33 492.03 531.91 495.63 536.91 C 495.79 531.15 494.98 525.18 496.76 519.61 C 497.24 517.57 499.40 517.17 501.07 516.53 C 501.41 526.68 501.29 536.84 501.13 547.00 L 495.77 547.00 C 490.99 539.88 486.63 532.49 482.03 525.25 C 481.94 532.50 482.09 539.75 481.92 547.00 L 476.86 547.00 C 476.68 536.86 476.66 526.72 476.88 516.58 Z" />
<path fill="#565757" opacity="1.00" d=" M 521.24 518.31 C 526.13 516.40 531.85 516.37 536.78 518.18 C 539.58 519.17 540.85 522.13 540.70 524.94 C 540.68 530.45 541.18 536.04 540.30 541.50 C 539.47 545.11 535.53 546.16 532.42 547.00 L 525.41 547.00 C 522.37 545.93 518.25 544.75 517.85 540.94 C 517.18 536.00 517.51 530.99 517.52 526.02 C 517.59 523.14 518.11 519.43 521.24 518.31 M 524.38 522.37 C 521.43 524.88 523.46 529.60 522.86 533.02 C 523.33 535.83 521.39 540.74 525.20 541.71 C 528.30 542.01 532.09 542.80 534.75 540.73 C 536.02 537.67 535.33 534.23 535.52 531.00 C 535.35 528.14 536.00 524.98 534.52 522.38 C 531.28 521.35 527.58 521.06 524.38 522.37 Z" />
<path fill="#565757" opacity="1.00" d=" M 557.11 516.73 C 560.49 517.06 563.67 518.59 565.75 521.35 C 569.57 526.16 572.17 531.81 575.87 536.73 C 576.04 531.12 575.34 525.33 576.93 519.88 C 577.37 517.75 579.55 517.17 581.27 516.40 C 581.72 526.59 581.51 536.80 581.39 547.00 L 576.05 547.00 C 571.25 539.89 566.96 532.46 562.27 525.28 C 562.20 532.52 562.32 539.76 562.19 547.00 L 557.21 547.00 C 556.78 536.92 557.00 526.82 557.11 516.73 Z" />
<path fill="#565757" opacity="1.00" d=" M 598.69 520.73 C 599.02 518.74 601.40 515.94 603.46 517.32 C 603.83 527.19 603.60 537.11 603.53 547.00 L 598.15 547.00 C 598.14 538.25 597.00 529.38 598.69 520.73 Z" />
<path fill="#565757" opacity="1.00" d=" M 620.06 516.70 C 626.03 516.46 629.15 522.04 632.10 526.29 C 635.12 522.08 638.46 516.96 644.17 516.55 C 644.56 526.69 644.39 536.85 644.27 547.00 L 639.23 547.00 C 638.94 539.89 639.35 532.76 638.94 525.66 C 637.16 529.14 635.79 532.81 634.30 536.43 C 632.92 536.30 631.54 536.16 630.18 536.03 C 628.64 532.37 627.05 528.72 625.21 525.20 C 625.02 532.47 625.20 539.73 625.09 547.00 L 620.10 547.00 C 619.68 536.91 619.80 526.79 620.06 516.70 Z" />
<path fill="#565757" opacity="1.00" d=" M 663.60 518.60 C 668.02 516.52 673.21 516.46 677.94 517.41 C 681.03 518.00 683.96 520.53 683.82 523.90 C 683.99 531.59 683.83 539.30 683.84 547.00 L 678.84 547.00 C 678.73 542.83 678.73 538.66 678.74 534.49 C 674.54 534.51 670.35 534.51 666.16 534.48 C 666.15 538.65 666.14 542.83 665.96 547.00 L 660.92 547.00 C 660.33 540.36 660.68 533.67 660.64 527.02 C 660.83 524.10 660.75 520.30 663.60 518.60 M 666.16 529.54 C 670.37 529.47 674.58 529.49 678.79 529.51 C 678.54 527.22 679.32 524.44 677.64 522.57 C 674.73 521.08 671.14 521.33 668.04 522.09 C 664.96 523.18 666.45 527.08 666.16 529.54 Z" />
</g>
</svg>
